<mxfile host="app.diagrams.net" modified="2023-11-11T09:54:27.230Z" agent="Mozilla/5.0 (Windows NT 10.0; Win64; x64) AppleWebKit/537.36 (KHTML, like Gecko) Chrome/119.0.0.0 Safari/537.36" etag="ZkMpF6iGmRwsI9miYc2l" version="22.1.0" type="github">
  <diagram name="第 1 页" id="61dFjE6FnzUjz78B8bg2">
    <mxGraphModel dx="2474" dy="742" grid="0" gridSize="10" guides="1" tooltips="1" connect="1" arrows="1" fold="1" page="0" pageScale="1" pageWidth="827" pageHeight="1169" math="0" shadow="0">
      <root>
        <mxCell id="0" />
        <mxCell id="1" parent="0" />
        <mxCell id="Mo9HMAjSn4mlUs0sm9r7-1" value="" style="rounded=0;whiteSpace=wrap;html=1;dashed=1;dashPattern=8 8;strokeColor=#FF9933;" parent="1" vertex="1">
          <mxGeometry x="59" y="447" width="825" height="404" as="geometry" />
        </mxCell>
        <mxCell id="Mo9HMAjSn4mlUs0sm9r7-27" value="" style="rounded=1;whiteSpace=wrap;html=1;dashed=1;dashPattern=12 12;strokeColor=#FFCCFF;" parent="1" vertex="1">
          <mxGeometry x="122" y="465" width="165" height="266" as="geometry" />
        </mxCell>
        <mxCell id="Mo9HMAjSn4mlUs0sm9r7-3" value="" style="rounded=1;whiteSpace=wrap;html=1;dashed=1;dashPattern=8 8;strokeColor=#FFCC99;" parent="1" vertex="1">
          <mxGeometry x="-73" y="444" width="128" height="422" as="geometry" />
        </mxCell>
        <mxCell id="Mo9HMAjSn4mlUs0sm9r7-6" value="serverCron" style="rounded=1;whiteSpace=wrap;html=1;fillColor=#dae8fc;strokeColor=#6c8ebf;" parent="1" vertex="1">
          <mxGeometry x="-52" y="554" width="81" height="40" as="geometry" />
        </mxCell>
        <mxCell id="Mo9HMAjSn4mlUs0sm9r7-7" value="serverCron" style="rounded=1;whiteSpace=wrap;html=1;fillColor=#dae8fc;strokeColor=#6c8ebf;" parent="1" vertex="1">
          <mxGeometry x="-52" y="636" width="81" height="40" as="geometry" />
        </mxCell>
        <mxCell id="Mo9HMAjSn4mlUs0sm9r7-8" value="serverCron" style="rounded=1;whiteSpace=wrap;html=1;fillColor=#dae8fc;strokeColor=#6c8ebf;" parent="1" vertex="1">
          <mxGeometry x="-52" y="468.5" width="81" height="40" as="geometry" />
        </mxCell>
        <mxCell id="Mo9HMAjSn4mlUs0sm9r7-9" value="epoll" style="rounded=1;whiteSpace=wrap;html=1;fillColor=#d5e8d4;strokeColor=#82b366;" parent="1" vertex="1">
          <mxGeometry x="59" y="895" width="828" height="51" as="geometry" />
        </mxCell>
        <mxCell id="Mo9HMAjSn4mlUs0sm9r7-10" value="Linux kernel" style="text;html=1;strokeColor=none;fillColor=none;align=center;verticalAlign=middle;whiteSpace=wrap;rounded=0;" parent="1" vertex="1">
          <mxGeometry x="53" y="865" width="103" height="27" as="geometry" />
        </mxCell>
        <mxCell id="Mo9HMAjSn4mlUs0sm9r7-13" style="edgeStyle=orthogonalEdgeStyle;rounded=0;orthogonalLoop=1;jettySize=auto;html=1;" parent="1" source="Mo9HMAjSn4mlUs0sm9r7-11" target="Mo9HMAjSn4mlUs0sm9r7-9" edge="1">
          <mxGeometry relative="1" as="geometry" />
        </mxCell>
        <mxCell id="Mo9HMAjSn4mlUs0sm9r7-11" value="" style="rounded=1;whiteSpace=wrap;html=1;dashed=1;dashPattern=12 12;strokeColor=#9999FF;" parent="1" vertex="1">
          <mxGeometry x="116" y="780" width="714" height="43" as="geometry" />
        </mxCell>
        <mxCell id="Mo9HMAjSn4mlUs0sm9r7-12" value="&lt;div style=&quot;color: rgb(8, 8, 8); font-family: &amp;quot;JetBrains Mono&amp;quot;, monospace; font-size: 10.5pt;&quot;&gt;aeEventLoop&lt;/div&gt;" style="text;html=1;strokeColor=none;fillColor=none;align=center;verticalAlign=middle;whiteSpace=wrap;rounded=0;" parent="1" vertex="1">
          <mxGeometry x="104" y="440" width="97" height="39" as="geometry" />
        </mxCell>
        <mxCell id="Mo9HMAjSn4mlUs0sm9r7-14" value="FD" style="rounded=1;whiteSpace=wrap;html=1;fillColor=#f8cecc;strokeColor=#b85450;" parent="1" vertex="1">
          <mxGeometry x="131" y="788.5" width="38" height="26" as="geometry" />
        </mxCell>
        <mxCell id="Mo9HMAjSn4mlUs0sm9r7-15" value="FD" style="rounded=1;whiteSpace=wrap;html=1;fillColor=#f8cecc;strokeColor=#b85450;" parent="1" vertex="1">
          <mxGeometry x="192" y="788.5" width="38" height="26" as="geometry" />
        </mxCell>
        <mxCell id="Mo9HMAjSn4mlUs0sm9r7-16" value="FD" style="rounded=1;whiteSpace=wrap;html=1;fillColor=#f8cecc;strokeColor=#b85450;" parent="1" vertex="1">
          <mxGeometry x="253" y="788.5" width="38" height="26" as="geometry" />
        </mxCell>
        <mxCell id="Mo9HMAjSn4mlUs0sm9r7-17" value="FD" style="rounded=1;whiteSpace=wrap;html=1;fillColor=#f8cecc;strokeColor=#b85450;" parent="1" vertex="1">
          <mxGeometry x="314" y="788.5" width="38" height="26" as="geometry" />
        </mxCell>
        <mxCell id="Mo9HMAjSn4mlUs0sm9r7-18" value="FD" style="rounded=1;whiteSpace=wrap;html=1;fillColor=#f8cecc;strokeColor=#b85450;" parent="1" vertex="1">
          <mxGeometry x="375" y="788.5" width="38" height="26" as="geometry" />
        </mxCell>
        <mxCell id="Mo9HMAjSn4mlUs0sm9r7-19" value="FD" style="rounded=1;whiteSpace=wrap;html=1;fillColor=#f8cecc;strokeColor=#b85450;" parent="1" vertex="1">
          <mxGeometry x="436" y="788.5" width="38" height="26" as="geometry" />
        </mxCell>
        <mxCell id="Mo9HMAjSn4mlUs0sm9r7-20" value="FD" style="rounded=1;whiteSpace=wrap;html=1;fillColor=#f8cecc;strokeColor=#b85450;" parent="1" vertex="1">
          <mxGeometry x="497" y="788.5" width="38" height="26" as="geometry" />
        </mxCell>
        <mxCell id="Mo9HMAjSn4mlUs0sm9r7-21" value="FD" style="rounded=1;whiteSpace=wrap;html=1;fillColor=#f8cecc;strokeColor=#b85450;" parent="1" vertex="1">
          <mxGeometry x="558" y="788.5" width="38" height="26" as="geometry" />
        </mxCell>
        <mxCell id="Mo9HMAjSn4mlUs0sm9r7-22" value="FD" style="rounded=1;whiteSpace=wrap;html=1;fillColor=#f8cecc;strokeColor=#b85450;" parent="1" vertex="1">
          <mxGeometry x="619" y="788.5" width="38" height="26" as="geometry" />
        </mxCell>
        <mxCell id="Mo9HMAjSn4mlUs0sm9r7-23" value="FD" style="rounded=1;whiteSpace=wrap;html=1;fillColor=#f8cecc;strokeColor=#b85450;" parent="1" vertex="1">
          <mxGeometry x="680" y="788.5" width="38" height="26" as="geometry" />
        </mxCell>
        <mxCell id="Mo9HMAjSn4mlUs0sm9r7-24" value="FD" style="rounded=1;whiteSpace=wrap;html=1;fillColor=#f8cecc;strokeColor=#b85450;" parent="1" vertex="1">
          <mxGeometry x="741" y="788.5" width="38" height="26" as="geometry" />
        </mxCell>
        <mxCell id="Mo9HMAjSn4mlUs0sm9r7-30" style="edgeStyle=orthogonalEdgeStyle;rounded=0;orthogonalLoop=1;jettySize=auto;html=1;entryX=0.5;entryY=0;entryDx=0;entryDy=0;" parent="1" target="Mo9HMAjSn4mlUs0sm9r7-11" edge="1">
          <mxGeometry relative="1" as="geometry">
            <mxPoint x="211" y="713" as="sourcePoint" />
          </mxGeometry>
        </mxCell>
        <mxCell id="Mo9HMAjSn4mlUs0sm9r7-29" value="&lt;div style=&quot;color: rgb(8, 8, 8); font-family: &amp;quot;JetBrains Mono&amp;quot;, monospace; font-size: 10.5pt;&quot;&gt;&lt;br&gt;&lt;/div&gt;" style="text;html=1;strokeColor=none;fillColor=none;align=center;verticalAlign=middle;whiteSpace=wrap;rounded=0;" parent="1" vertex="1">
          <mxGeometry x="135" y="639" width="91" height="32" as="geometry" />
        </mxCell>
        <mxCell id="Mo9HMAjSn4mlUs0sm9r7-31" value="。。。" style="rounded=1;whiteSpace=wrap;html=1;fillColor=#dae8fc;strokeColor=#6c8ebf;" parent="1" vertex="1">
          <mxGeometry x="-49.5" y="724" width="81" height="40" as="geometry" />
        </mxCell>
        <mxCell id="we-VEpmWxP2bQMoeo2tQ-5" style="edgeStyle=orthogonalEdgeStyle;rounded=0;orthogonalLoop=1;jettySize=auto;html=1;entryX=1;entryY=0.5;entryDx=0;entryDy=0;" edge="1" parent="1" source="we-VEpmWxP2bQMoeo2tQ-1" target="Mo9HMAjSn4mlUs0sm9r7-8">
          <mxGeometry relative="1" as="geometry" />
        </mxCell>
        <mxCell id="we-VEpmWxP2bQMoeo2tQ-1" value="&lt;div style=&quot;color: rgb(8, 8, 8); font-family: &amp;quot;JetBrains Mono&amp;quot;, monospace; font-size: 10.5pt;&quot;&gt;aeTimeEvent&lt;/div&gt;" style="rounded=1;whiteSpace=wrap;html=1;" vertex="1" parent="1">
          <mxGeometry x="155" y="470" width="98" height="38" as="geometry" />
        </mxCell>
        <mxCell id="we-VEpmWxP2bQMoeo2tQ-8" style="edgeStyle=orthogonalEdgeStyle;rounded=0;orthogonalLoop=1;jettySize=auto;html=1;entryX=0;entryY=0.5;entryDx=0;entryDy=0;" edge="1" parent="1" source="we-VEpmWxP2bQMoeo2tQ-2" target="we-VEpmWxP2bQMoeo2tQ-6">
          <mxGeometry relative="1" as="geometry" />
        </mxCell>
        <mxCell id="we-VEpmWxP2bQMoeo2tQ-2" value="&lt;div style=&quot;color: rgb(8, 8, 8); font-family: &amp;quot;JetBrains Mono&amp;quot;, monospace; font-size: 10.5pt;&quot;&gt;aeFleEvent&lt;/div&gt;" style="rounded=1;whiteSpace=wrap;html=1;" vertex="1" parent="1">
          <mxGeometry x="155.5" y="537" width="98" height="38" as="geometry" />
        </mxCell>
        <mxCell id="we-VEpmWxP2bQMoeo2tQ-3" value="&lt;div style=&quot;color: rgb(8, 8, 8); font-family: &amp;quot;JetBrains Mono&amp;quot;, monospace; font-size: 10.5pt;&quot;&gt;aeApiState&lt;br&gt;&lt;/div&gt;" style="rounded=1;whiteSpace=wrap;html=1;fillColor=#f8cecc;strokeColor=#b85450;" vertex="1" parent="1">
          <mxGeometry x="155" y="676" width="98" height="38" as="geometry" />
        </mxCell>
        <mxCell id="we-VEpmWxP2bQMoeo2tQ-11" style="edgeStyle=orthogonalEdgeStyle;rounded=0;orthogonalLoop=1;jettySize=auto;html=1;" edge="1" parent="1" source="we-VEpmWxP2bQMoeo2tQ-6" target="we-VEpmWxP2bQMoeo2tQ-10">
          <mxGeometry relative="1" as="geometry" />
        </mxCell>
        <mxCell id="we-VEpmWxP2bQMoeo2tQ-6" value="&lt;div style=&quot;color: rgb(8, 8, 8); font-family: &amp;quot;JetBrains Mono&amp;quot;, monospace; font-size: 10.5pt;&quot;&gt;listen file&lt;/div&gt;" style="rounded=1;whiteSpace=wrap;html=1;" vertex="1" parent="1">
          <mxGeometry x="439" y="470" width="98" height="38" as="geometry" />
        </mxCell>
        <mxCell id="we-VEpmWxP2bQMoeo2tQ-18" style="edgeStyle=orthogonalEdgeStyle;rounded=0;orthogonalLoop=1;jettySize=auto;html=1;" edge="1" parent="1" source="we-VEpmWxP2bQMoeo2tQ-7" target="we-VEpmWxP2bQMoeo2tQ-14">
          <mxGeometry relative="1" as="geometry" />
        </mxCell>
        <mxCell id="we-VEpmWxP2bQMoeo2tQ-7" value="&lt;div style=&quot;color: rgb(8, 8, 8); font-family: &amp;quot;JetBrains Mono&amp;quot;, monospace; font-size: 10.5pt;&quot;&gt;create client&lt;/div&gt;" style="rounded=1;whiteSpace=wrap;html=1;" vertex="1" parent="1">
          <mxGeometry x="640.5" y="589" width="98" height="38" as="geometry" />
        </mxCell>
        <mxCell id="we-VEpmWxP2bQMoeo2tQ-12" style="edgeStyle=orthogonalEdgeStyle;rounded=0;orthogonalLoop=1;jettySize=auto;html=1;" edge="1" parent="1" source="we-VEpmWxP2bQMoeo2tQ-10" target="we-VEpmWxP2bQMoeo2tQ-7">
          <mxGeometry relative="1" as="geometry" />
        </mxCell>
        <mxCell id="we-VEpmWxP2bQMoeo2tQ-10" value="&lt;div style=&quot;color: rgb(8, 8, 8); font-family: &amp;quot;JetBrains Mono&amp;quot;, monospace; font-size: 10.5pt;&quot;&gt;acceptTcpHandler&lt;/div&gt;" style="rounded=1;whiteSpace=wrap;html=1;fillColor=#f8cecc;strokeColor=#b85450;" vertex="1" parent="1">
          <mxGeometry x="626" y="470" width="127" height="37" as="geometry" />
        </mxCell>
        <mxCell id="we-VEpmWxP2bQMoeo2tQ-13" value="&lt;div style=&quot;color: rgb(8, 8, 8); font-family: &amp;quot;JetBrains Mono&amp;quot;, monospace; font-size: 10.5pt;&quot;&gt;&lt;br&gt;&lt;/div&gt;" style="text;html=1;align=center;verticalAlign=middle;resizable=0;points=[];autosize=1;strokeColor=none;fillColor=none;" vertex="1" parent="1">
          <mxGeometry x="648" y="1151" width="18" height="29" as="geometry" />
        </mxCell>
        <mxCell id="we-VEpmWxP2bQMoeo2tQ-16" value="" style="edgeStyle=orthogonalEdgeStyle;rounded=0;orthogonalLoop=1;jettySize=auto;html=1;" edge="1" parent="1" source="we-VEpmWxP2bQMoeo2tQ-14" target="we-VEpmWxP2bQMoeo2tQ-15">
          <mxGeometry relative="1" as="geometry" />
        </mxCell>
        <mxCell id="we-VEpmWxP2bQMoeo2tQ-17" style="edgeStyle=orthogonalEdgeStyle;rounded=0;orthogonalLoop=1;jettySize=auto;html=1;" edge="1" parent="1" source="we-VEpmWxP2bQMoeo2tQ-14" target="Mo9HMAjSn4mlUs0sm9r7-17">
          <mxGeometry relative="1" as="geometry">
            <Array as="points">
              <mxPoint x="488" y="697" />
              <mxPoint x="333" y="697" />
            </Array>
          </mxGeometry>
        </mxCell>
        <mxCell id="we-VEpmWxP2bQMoeo2tQ-14" value="&lt;div style=&quot;color: rgb(8, 8, 8); font-family: &amp;quot;JetBrains Mono&amp;quot;, monospace; font-size: 10.5pt;&quot;&gt;aeCreateFileEvent&lt;br&gt;&lt;/div&gt;" style="rounded=1;whiteSpace=wrap;html=1;fillColor=#f8cecc;strokeColor=#b85450;" vertex="1" parent="1">
          <mxGeometry x="424.5" y="590" width="127" height="37" as="geometry" />
        </mxCell>
        <mxCell id="we-VEpmWxP2bQMoeo2tQ-15" value="&lt;div style=&quot;color: rgb(8, 8, 8); font-family: &amp;quot;JetBrains Mono&amp;quot;, monospace; font-size: 10.5pt;&quot;&gt;readQueryFromClient设置为当前client 文件事件的read回调函数&lt;/div&gt;" style="text;html=1;strokeColor=none;fillColor=none;align=center;verticalAlign=middle;whiteSpace=wrap;rounded=0;" vertex="1" parent="1">
          <mxGeometry x="374.5" y="558" width="227" height="23" as="geometry" />
        </mxCell>
        <mxCell id="we-VEpmWxP2bQMoeo2tQ-22" style="edgeStyle=orthogonalEdgeStyle;rounded=0;orthogonalLoop=1;jettySize=auto;html=1;entryX=0;entryY=0.5;entryDx=0;entryDy=0;" edge="1" parent="1" source="we-VEpmWxP2bQMoeo2tQ-19" target="we-VEpmWxP2bQMoeo2tQ-21">
          <mxGeometry relative="1" as="geometry">
            <Array as="points">
              <mxPoint x="209" y="661" />
              <mxPoint x="449" y="661" />
              <mxPoint x="449" y="708" />
            </Array>
          </mxGeometry>
        </mxCell>
        <mxCell id="we-VEpmWxP2bQMoeo2tQ-19" value="&lt;div style=&quot;color: rgb(8, 8, 8); font-family: &amp;quot;JetBrains Mono&amp;quot;, monospace; font-size: 10.5pt;&quot;&gt;&lt;div style=&quot;font-size: 10.5pt;&quot;&gt;fired：已就绪的文件事件&lt;/div&gt;&lt;/div&gt;" style="rounded=1;whiteSpace=wrap;html=1;" vertex="1" parent="1">
          <mxGeometry x="160" y="607" width="98" height="38" as="geometry" />
        </mxCell>
        <mxCell id="we-VEpmWxP2bQMoeo2tQ-21" value="&lt;div style=&quot;color: rgb(8, 8, 8); font-family: &amp;quot;JetBrains Mono&amp;quot;, monospace; font-size: 10.5pt;&quot;&gt;call proc&lt;/div&gt;" style="rounded=1;whiteSpace=wrap;html=1;fillColor=#f8cecc;strokeColor=#b85450;" vertex="1" parent="1">
          <mxGeometry x="640.5" y="689" width="98" height="38" as="geometry" />
        </mxCell>
      </root>
    </mxGraphModel>
  </diagram>
</mxfile>
